<?xml version="1.0" standalone="no"?>
<!DOCTYPE svg PUBLIC "-//W3C//DTD SVG 20010904//EN"
 "http://www.w3.org/TR/2001/REC-SVG-20010904/DTD/svg10.dtd">
<svg version="1.0" xmlns="http://www.w3.org/2000/svg"
 width="1024.000000pt" height="1024.000000pt" viewBox="0 0 1024.000000 1024.000000"
 preserveAspectRatio="xMidYMid meet">
<metadata>
Created by potrace 1.14, written by Peter Selinger 2001-2017
</metadata>
<g transform="translate(0.000000,1024.000000) scale(0.100000,-0.100000)"
fill="#000000" stroke="none">
<path d="M3039 8226 c-2 -2 -20 -6 -39 -9 -80 -13 -106 -18 -120 -24 -19 -8
-20 -8 -55 -18 -16 -4 -39 -14 -50 -21 -11 -8 -27 -14 -37 -14 -10 0 -18 -4
-18 -9 0 -5 -8 -11 -17 -15 -30 -10 -88 -47 -96 -62 -4 -8 -13 -14 -19 -14 -6
0 -19 -9 -29 -21 -9 -11 -21 -20 -26 -21 -4 0 -7 -4 -5 -9 1 -5 -4 -9 -12 -9
-7 0 -20 -8 -27 -17 -13 -17 -12 -17 6 -4 11 8 3 -3 -19 -23 -21 -20 -35 -36
-31 -36 5 0 -2 -8 -13 -19 -12 -10 -22 -23 -22 -30 0 -6 -5 -11 -10 -11 -6 0
-9 -3 -8 -7 1 -5 -13 -38 -31 -75 -18 -37 -34 -76 -36 -85 -2 -10 -4 -18 -6
-18 -1 0 -3 -9 -5 -20 -1 -11 -6 -31 -10 -45 -3 -14 -7 -1351 -8 -2973 l-1
-2947 490 0 490 0 0 2783 0 2782 532 3 532 2 25 -24 c14 -13 26 -27 26 -31 0
-4 11 -18 26 -31 14 -13 23 -24 20 -24 -5 0 35 -47 76 -91 15 -16 25 -29 21
-29 -3 0 7 -13 23 -29 16 -15 40 -43 54 -61 14 -18 38 -46 53 -62 15 -15 24
-28 20 -28 -4 0 8 -14 27 -31 19 -17 28 -28 20 -24 -8 4 -1 -6 15 -22 17 -17
42 -46 57 -64 53 -65 83 -102 101 -122 9 -11 17 -24 17 -29 0 -5 4 -7 9 -3 5
3 12 -4 16 -15 3 -11 11 -20 16 -20 5 0 9 -4 9 -10 0 -9 35 -51 88 -106 13
-13 20 -24 17 -24 -3 0 4 -11 17 -23 13 -13 39 -43 58 -67 19 -23 41 -49 48
-56 6 -7 12 -16 12 -20 0 -4 12 -19 28 -35 56 -57 83 -89 77 -89 -4 0 7 -13
24 -29 17 -16 31 -32 31 -35 0 -4 10 -17 23 -30 12 -12 33 -38 47 -56 14 -18
38 -46 53 -62 16 -15 26 -28 22 -28 -3 0 9 -14 27 -31 18 -18 26 -28 18 -24
-8 4 -4 -4 10 -17 14 -14 41 -44 60 -67 19 -23 46 -55 60 -71 14 -16 36 -43
50 -61 14 -18 39 -48 57 -67 18 -18 32 -35 33 -37 0 -3 3 -6 6 -7 3 -2 7 402
7 897 l2 900 300 1 c188 0 307 -3 320 -10 11 -6 22 -11 25 -11 18 -4 60 -30
60 -37 0 -4 7 -8 15 -8 8 0 15 -5 15 -12 0 -6 3 -9 6 -6 3 3 29 -18 57 -47 57
-57 90 -95 82 -95 -3 0 3 -9 13 -20 9 -12 17 -24 18 -28 0 -4 5 -18 11 -32 24
-53 31 -77 39 -130 9 -52 9 -2489 0 -2535 -4 -22 -7 -46 -8 -52 -1 -7 -5 -13
-10 -13 -4 0 -7 -3 -5 -8 3 -11 -46 -122 -55 -122 -5 0 -8 -5 -8 -11 0 -6 -10
-20 -22 -31 -13 -11 -16 -16 -8 -12 8 5 -5 -12 -30 -37 -25 -25 -48 -44 -52
-42 -4 2 -13 -6 -21 -17 -7 -11 -17 -17 -20 -13 -4 3 -7 1 -7 -5 0 -7 -7 -12
-15 -12 -8 0 -15 -5 -15 -11 0 -5 -4 -7 -10 -4 -5 3 -10 2 -10 -4 0 -5 -13
-12 -30 -16 -16 -4 -30 -10 -30 -13 0 -4 -120 -7 -267 -7 l-268 0 -52 52 c-29
29 -53 56 -53 61 0 5 -8 16 -17 23 -17 13 -17 13 -3 -6 14 -19 14 -19 -2 -6
-10 7 -18 18 -18 23 0 5 -22 31 -49 58 -26 26 -51 55 -54 64 -4 9 -14 16 -23
16 -10 0 -15 3 -11 6 3 4 -22 34 -56 68 -34 33 -62 63 -62 66 0 3 -3 4 -7 3
-5 -2 -8 1 -8 7 0 5 -18 28 -40 50 -22 22 -40 45 -40 50 0 6 -5 9 -12 7 -6 -1
-16 7 -22 19 -6 11 -37 46 -68 76 -31 31 -54 59 -51 62 4 3 -1 6 -10 6 -10 0
-17 4 -17 10 0 5 -34 44 -75 86 -42 42 -70 72 -63 68 7 -4 -17 23 -54 60 -38
36 -68 71 -68 77 0 6 -4 7 -10 4 -6 -3 -10 -2 -10 4 0 5 -18 28 -40 50 -22 22
-40 45 -40 51 0 6 -4 9 -8 6 -5 -3 -19 9 -33 26 -13 17 -48 55 -76 84 -29 30
-53 56 -53 60 0 4 -35 41 -77 84 -90 90 -193 200 -188 200 3 0 -34 39 -82 86
-47 48 -79 83 -72 78 12 -7 12 -5 0 9 -42 52 -41 91 -41 -1356 l0 -1372 1428
1 c1009 1 1435 4 1453 12 15 6 29 8 32 5 3 -3 23 1 44 8 43 15 62 20 81 21 6
1 12 5 12 10 0 5 5 6 10 3 6 -3 10 -1 10 4 0 6 3 10 8 9 11 -2 45 14 66 31 10
9 20 14 23 12 3 -1 16 6 29 18 13 11 24 18 24 13 1 -4 8 2 18 14 9 11 21 21
25 21 14 3 125 121 119 127 -3 3 0 6 6 6 7 0 12 7 12 15 0 8 4 15 9 15 5 0 14
14 21 30 7 17 16 30 21 30 5 0 9 8 9 18 0 10 7 28 16 40 8 12 17 31 20 42 2
11 6 29 8 40 3 11 8 24 11 30 3 5 8 24 10 42 3 18 8 44 11 58 10 38 11 4079 1
4125 -4 22 -8 46 -9 53 -1 6 -5 12 -10 12 -5 0 -7 4 -3 9 3 5 1 12 -5 16 -6 4
-8 11 -5 16 4 5 1 9 -5 9 -6 0 -9 4 -6 9 3 5 -1 14 -9 21 -8 7 -13 16 -10 20
2 4 -6 18 -18 31 -12 13 -21 27 -20 31 2 5 -2 8 -7 8 -6 0 -10 4 -10 10 0 5
-18 29 -40 52 -22 24 -40 46 -40 49 0 4 -13 12 -30 19 -16 7 -27 17 -24 22 3
5 -3 12 -15 15 -12 3 -21 9 -21 14 0 5 -6 9 -14 9 -8 0 -16 4 -18 9 -3 8 -102
62 -120 67 -5 1 -10 3 -13 4 -3 1 -8 3 -12 5 -5 1 -16 5 -25 9 -9 4 -25 9 -35
11 -10 2 -18 4 -18 5 0 1 -9 4 -20 6 -11 3 -31 8 -45 11 -26 7 -4134 16 -4141
9z"/>
</g>
</svg>
